- 
http://www.Speed.Cd      fast  and The Hottest Private Tracker on the net

Please Seed back to make the speed Faster!!!

------------------nfo--------------------------
-[img]http://img265.imageshack.us/img265/5845/96ca5dretreatposter.jpg[/img]

Retreat.2011.BRRip.XviD.AC3-EMBER 
http://www.imdb.com/title/tt1410051

Plot:
In a last-ditch attempt to save their failing marriage after the stillbirth of their first child, Kate, 
a journalist, and Martin, an architect, escape London for a retreat to the beautiful, yet remote and 
unpopulated Blackholme Island, which is off the west coast of Scotland.

Source                           : 720p.BluRay.X264-7SinS Thanks

General
Format                           : AVI
Format/Info                      : Audio Video Interleave
File size                        : 1.94 GiB
Duration                         : 1h 29mn
Overall bit rate                 : 3 096 Kbps
Writing application              : VirtualDubMod 1.5.10.2 (build 2540/release)
Writing library                  : VirtualDubMod build 2540/release

Video
ID                               : 0
Format                           : MPEG-4 Visual
Format profile                   : Advanced Simple@L5
Format settings, BVOP            : 2
Format settings, QPel            : No
Format settings, GMC             : No warppoints
Format settings, Matrix          : Default (H.263)
Muxing mode                      : Packed bitstream
Codec ID                         : XVID
Codec ID/Hint                    : XviD
Duration                         : 1h 29mn
Bit rate                         : 2 702 Kbps
Width                            : 720 pixels
Height                           : 304 pixels
Display aspect ratio             : 2.35:1
Frame rate                       : 24.000 fps
Color space                      : YUV
Chroma subsampling               : 4:2:0
Bit depth                        : 8 bits
Scan type                        : Progressive
Compression mode                 : Lossy
Bits/(Pixel*Frame)               : 0.514
Stream size                      : 1.70 GiB (87%)
Writing library                  : XviD 64

Audio
ID                               : 1
Format                           : AC-3
Format/Info                      : Audio Coding 3
Mode extension                   : CM (complete main)
Codec ID                         : 2000
Duration                         : 1h 29mn
Bit rate mode                    : Constant
Bit rate                         : 384 Kbps
Channel(s)                       : 6 channels
Channel positions                : Front: L C R, Side: L R, LFE
Sampling rate                    : 48.0 KHz
Bit depth                        : 16 bits
Compression mode                 : Lossy
Stream size                      : 247 MiB (12%)
Alignment                        : Split accross interleaves
Interleave, duration             : 42 ms (1.00 video frame)
Interleave, preload duration     : 500 ms

Notes
Took some doing for some reason, encoded this about 4 times now and its come out quite bit bigger than it should of :/
Didnt like the way the 1st 2 encodes looked so re did it, 3rd 1 came out over 2gb instead of 1.5gb, this 1 still came out too big
but does look good :P

Screens
[img]http://img267.imageshack.us/img267/3509/52324322.png[/img]
[img]http://img835.imageshack.us/img835/3774/84534917.png[/img]
[img]http://img269.imageshack.us/img269/3158/14564995.png[/img]
[img]http://img855.imageshack.us/img855/768/68601762.png[/img]

Greetz to 
SHiRK, SHK, LKRG, UnKnOwN, IMAGiNE, SiC, BHRG, TaRiQ786, FLAWL3SS, Rx, Hive-CM8

SAMURAi, ViSUALiSE, RemixHD, iNSANE, DTRG

And to all other groups past and present

Got something to offer?

then you should know where to find us